<?xml version="1.0" encoding="utf-8"?>
<!-- Generator: Adobe Illustrator 18.1.1, SVG Export Plug-In . SVG Version: 6.00 Build 0)  -->
<svg version="1.1" id="图层_1" xmlns="http://www.w3.org/2000/svg" xmlns:xlink="http://www.w3.org/1999/xlink" x="0px" y="0px"
	 viewBox="0 0 612 792" enable-background="new 0 0 612 792" xml:space="preserve">
<g>
	<path d="M594.9,333.2c1,5.2,2.5,10.4,2.9,15.7c1.4,17,3,34,3.3,51.1c0.2,11.9-3.5,23.4-7.5,34.7c-2.1,6-2.8,12.7-3.2,19.1
		c-1.2,17.7-6.2,34.3-14.2,49.9c-8.8,17.3-17.8,34.7-28.4,50.9c-8,12.2-18.3,23.1-28.6,33.5c-11.9,12-24.8,23.1-37.4,34.3
		c-2.9,2.6-6.4,4.6-10,6.1c-13.3,5.9-26.7,11.7-40.1,17.3c-9.3,3.9-18.4,8.8-28.1,11c-17.3,4.1-35.4,5.3-52.5,10.1
		c-15.6,4.3-31.3,0.1-46.8,3.2c-15.1,3.1-29.9,0.3-44.6-3.6c-16.6-4.5-33.3-8.6-50-13.1c-3.6-1-7.1-2.8-10.6-4.2
		c-13.8-5.5-27.7-10.9-41.5-16.5c-2.2-0.9-4.2-2.2-6.3-3.4c-8.3-4.5-16.6-9-24.8-13.7c-4.2-2.4-8.4-5.1-12-8.3
		c-9.4-8.5-18.6-17.3-27.8-25.9c-10.4-9.7-20.1-19.8-26.3-33.1c-4.3-9.1-10.3-17.4-15.9-25.9c-5.2-7.9-8.6-16.3-10.9-25.6
		c-2.6-10.6-6.3-21-10.5-31c-5.8-13.6-8.4-27.7-9.6-42.3c-0.4-4.6-1.3-9.1-1.8-13.6c-2.1-18,0.7-35.7,3.2-53.4
		c0.8-5.4-0.2-11,0-16.5c0.1-2.3,0.8-4.7,1.5-6.9c6.7-20.3,12.6-40.8,20.4-60.7c10.8-27.5,27.4-51.3,49.1-71.6
		c8.4-7.9,15.5-17.1,23.3-25.7c10.2-11.2,21.7-20.8,34.5-28.9c5.2-3.3,10.4-6.8,15.7-9.9c10.9-6.3,21.5-12.7,34.5-14.5
		c9.3-1.3,18.2-5.1,27.3-7.4c6.9-1.7,13.9-3.1,20.9-4.2c6.5-1.1,12.8-2.3,19.2-4.3c9.3-3,19.5-3.4,29.3-4.8c8.9-1.2,18-1.9,26.9-3.3
		c9.9-1.5,19.1,1,28.5,3.3c6.3,1.6,12.8,2.4,18.9,4.6c22,8,45.5,12.4,65.1,26.4c2.1,1.5,5,2,7.4,3.2c10.5,5.1,21,10.1,31.4,15.4
		c9.7,4.9,19.2,10,28.6,15.5c2.9,1.7,5.6,4.3,7.3,7.1c3.7,6.3,8.4,11,14.5,15.2c5.6,3.9,10.1,10,13.7,16c3.8,6.2,8.5,11,14.4,14.8
		c4.7,3,7.1,7.1,9.4,12c5.7,11.8,11.9,23.4,18.5,34.7C587.5,287,596.1,308.6,594.9,333.2z M482,335.2c0.3,30.8-5.5,53.7-21.2,73.5
		c-0.9,1.1-1.7,2.4-2.1,3.7c-2.1,6.7-6.7,11.3-11.9,15.7c-11.5,9.6-26.1,13.5-38.6,21.2c-0.9,0.6-2.1,0.6-3.2,1
		c-7.3,2.5-14.6,5-21.9,7.6c-3.6,1.3-7.1,3-10.8,3.7c-11.9,2.2-24,3.7-36,5.9c-12.9,2.3-25.9,2.6-38.8,1.1
		c-5.2-0.6-10.5-2.4-15.5-1.9c-17.3,1.6-32.9-3.3-48.3-10.2c-10.1-4.6-20-9.7-30.4-13.3c-12.6-4.2-23.1-11-31.9-20.7
		c-1.5-1.6-3.1-3.4-5-4.2c-8.9-3.8-14.2-10.8-16.4-19.8c-4-16.3-7.5-32.7-10.7-49.2c-2.8-13.9-2.2-27.8,1.6-41.5
		c5.5-20.1,6-40.8,6-61.3c0-16.6-15.3-29-32-27.1c-6.5,0.7-13,1.3-19.3,2.5c-3.9,0.7-7.7,2.3-11.3,4c-2.1,1-3.7,2.9-5.7,4.3
		c-0.8,0.5-2.4,0.6-2.9,0.7c-4.6,0.5-3.8-0.6-5,1.3c-3.7,5.4-7.6,10.6-10.9,16.1c-10.9,18.2-19.4,37.4-25.4,57.7
		c-4.5,15.2-10.6,29.9-10.9,46.4c-0.3,17.7-5.2,35.1-2.9,53c0.8,6.4,1.7,12.9,2.4,19.3c1.4,13.1,4,25.8,9.2,38.1
		c4.7,11.2,7.9,23,12,34.5c2,5.6,3.7,11.6,6.7,16.7c7.4,12.5,15.4,24.7,23.5,36.8c2.8,4.3,6.4,8,9.6,12c1,1.2,2,2.5,3,3.7
		c9,10.4,17.7,21.1,27.3,30.9c4.1,4.2,10.1,6.8,15.4,9.8c8.4,4.7,17,9.1,25.4,13.7c2.2,1.2,4.3,2.7,6.7,3.6
		c14.7,5.9,29.4,11.7,44.2,17.5c2.6,1,5.3,1.9,8.1,2.6c7.4,1.8,14.8,3.3,22.2,5.3c10.5,2.8,21,6.2,31.5,8.8
		c11.4,2.9,23.1,3.9,34.9,2.1c5.3-0.8,10.8-1.8,16.1-1.5c10,0.6,19.7,0.4,29.7-1.8c17.5-3.8,35.2-6.2,52.8-9.4
		c3.7-0.7,7.6-1.6,10.9-3.3c17.2-9.1,36.3-13.9,52.9-24.3c2.9-1.8,6.6-2.6,9.2-4.8c16-14.1,32.7-27.6,46.5-44
		c7.7-9.1,15.7-17.9,22.6-27.5c6.1-8.5,11.4-17.6,15.9-27c6.4-13,12.2-26.4,17.5-40c2.5-6.5,3.9-13.7,4.5-20.8
		c0.9-10.6,1.3-21.2,5.3-31.2c5-12.6,7-25.9,6.2-39.2c-0.8-13.8,0.1-28-4.9-41.4c-0.6-1.6-0.5-3.4-0.6-5.2
		c-0.1-5.5,0.8-11.3-0.3-16.6c-3.8-19.7-10.8-38.3-21.4-55.6c-6-9.7-12.1-19.5-16-30.1c-3.5-9.5-11.1-14.5-18.3-18.2
		c-10.5-5.3-22.8-5.6-34.2-0.4c-9,4.1-16.8,10.4-18.8,20.2c-4,20.5-3,41.4-0.7,62.1C479,314.4,481,327.7,482,335.2z M255.4,311.3
		c7.8-4.3,14.3-8.2,21.1-11.6c11.7-5.9,20.4-14.7,25.9-26.3c5.2-10.8,6.2-22-1-32.6c-3.1-4.6-6.5-9-10-13.3
		c-11-13.2-23.5-23.3-42.3-20.8c-2.2,0.3-4.5,0.1-6.6-0.5c-1.3-0.4-3.2-1.9-3.3-3.1c-0.8-7.7-1.2-15.5-1.8-23.2
		c-0.3-3.1,0.5-4.6,4-4.9c12.8-1,25.5-2.4,38.3-3.6c6.1-0.6,10.1-3.3,9.6-7.2c-0.7-6.1-5.7-5.9-9.8-5.6c-12.3,1-24.6,2.3-36.8,3.9
		c-4.1,0.5-5.4-0.1-5.5-4.6c-0.1-6.4-1.1-12.9-2.5-19.1c-0.3-1.5-3.8-2.4-5.8-3.5c-0.9,2.1-2.7,4.1-2.7,6.2
		c-0.1,6.2,0.5,12.3,0.9,18.5c0.2,3.2-0.8,4.5-4.1,5.5c-8.9,2.6-18.1,5.1-26.4,9.3c-9.2,4.7-18.5,8.8-28.4,11.8
		c-3.7,1.1-6.6,5.4-9.1,8.8c-0.8,1.1,0.3,4.8,1.6,6c1.1,1,4.6,0.8,5.8-0.3c4.2-4,9.5-4.7,14.6-6.3c5.1-1.5,9.9-4.1,14.9-6.1
		c9.2-3.7,18.5-7.3,27.7-11.1c3-1.2,3.4,0.1,3.5,2.7c0.4,7,0.8,13.9,1.6,20.9c0.4,3.9-0.5,5.8-4.8,6c-20.8,1.1-33.8,14.2-44.4,30.2
		c-6.7,10.1-6,21.7-5.2,33.2c0.8,11.7,3.5,22.7,11.3,31.7c8,9.3,17.2,17.1,31,15.1c4.8-0.7,9.8-0.7,14.2-1.1
		c-3.8,3.4-8.3,6.5-11.8,10.5c-5.9,6.8-11.7,13.9-16.7,21.3c-6.8,9.9-13.1,20.2-19.1,30.6c-3.1,5.3-4.4,11.4-2,17.4
		c0.7,1.9,3.5,2.9,5.4,4.4c1.2-1.9,2.9-3.7,3.6-5.8c1.5-4.4,1.9-9.2,3.7-13.5c6.5-15.3,18.1-27.1,28.3-39.7c3.5-4.3,7.6-8,11.6-11.8
		c0.3-0.3,2.7,0.6,2.8,1.1c1.4,11.2,2.8,22.3,3.7,33.5c1.5,18,2.5,36.1,3.8,54.1c0.2,3.1,1.5,5.9,4.7,5.2c2-0.4,4.1-3,5.1-5.1
		c0.9-2,0.5-4.7,0.3-7c-0.6-7.9-1.5-15.8-2.1-23.7c-1.3-18-2.5-36-3.7-54c-0.3-4-0.2-8.1-0.3-12.1c4.3,1.4,9.1,2.1,12.8,4.5
		c8.9,5.8,17.4,12.2,25.7,18.8c2.4,1.9,4.5,5.3,5.1,8.3c2.9,14.9,5.2,29.9,7.9,44.9c0.5,2.6,1,5.6,2.5,7.5c1.3,1.6,4.3,3,6.2,2.7
		c1.6-0.3,3.3-3.1,3.9-5.1c0.7-2.2,0.2-4.7,0.1-7.1c-0.3-14.9-3.9-29.2-7.2-43.5c-1.8-7.5-5.2-13.7-11.3-18.1
		C281.8,326.1,271,316,255.4,311.3z M429.3,208.8c9.6-5,11.7-8.1,8.8-17.3c-2.8-9-7.9-16.9-16.3-22c-1.3-0.8-2.9-1.5-4.4-1.8
		c-12.9-2.8-25.7-5.5-38.6-8c-2.7-0.5-3.5-0.9-2.5-3.8c1.9-5.7,3.6-11.5,4.9-17.4c0.7-3.3-0.2-6.7-4.2-7.4c-3.6-0.6-4.5,2.3-5.5,5.2
		c-6.1,18.1-12.5,36-25.7,50.5c-1.2,1.3-1.8,4.5-1.1,5.8c0.9,1.4,3.8,2.3,5.6,2c2.2-0.3,4.7-1.6,6-3.3c4.5-6.1,8.7-12.4,12.6-18.9
		c1.5-2.5,2.7-3.3,5.6-2.6c10.9,2.7,21.8,5.7,32.8,7.6c7.6,1.3,12.5,4.9,16.2,11.6c3.4,6.3,3.8,6.1-2.3,10c-1.1,0.7-1.9,1.7-2.9,2.4
		c-0.8,0.5-1.9,1.2-2.7,1.1c-6.2-1-12.5-2-18.7-3.3c-13.3-2.9-26.2-1-38.8,3.4c-2,0.7-4.2,1.9-5.4,3.6c-1,1.4-1.3,4.1-0.6,5.6
		c0.5,1.1,3.1,1.5,4.8,1.8c1.2,0.2,2.5-0.5,3.7-0.8c23.1-5.9,45.3-3.9,65.8,8.9c2.3,1.4,4.2,4.3,5,6.9c1.9,7,3.1,14.2,4.5,21.4
		c3,15.7-3.1,28.5-14.9,37.8c-10.8,8.6-23.5,8.4-35.9,2.6c-9.5-4.5-19.5-6-29.7-4.8c-3.2,0.4-6.5,3.3-8.9,5.8
		c-1.1,1.1-0.8,5.1,0.4,6.4c1.4,1.4,4.7,2.3,6.7,1.7c8.4-2.5,16.4-1.3,24.1,2.3c8,3.7,15.9,5.7,25.1,5.1
		c25.2-1.8,47.3-24.2,46.1-49.4c-0.6-11.8-3.6-23.4-5.9-35C441.7,215.1,435.2,212.2,429.3,208.8z M403,405.3
		c-15.3,0.3-18-0.5-25.3-6.4c-12.7-10.4-18-24.9-19.8-40.4c-1.1-9.8,0.5-19.9,0.4-29.8c0-2.1-2.5-4.1-3.8-6.1
		c-1.9,1.6-4.8,2.9-5.4,4.9c-7.4,24.6-4.2,48.1,9.3,69.8c9.2,14.7,22.6,22.8,40.7,21.5c3.3-0.2,6.7-0.2,9.9-0.9
		c3.6-0.8,6-3.3,5.5-7.2c-0.4-3.6-3-5.4-6.7-5.3C405.9,405.3,403.8,405.3,403,405.3z M393.4,261.8c1.9-1.6,5-2.8,5.7-4.9
		c0.6-1.9-0.7-5.7-2.4-6.8c-7.8-4.9-16-8.6-25.6-8.9c-11.3-0.3-21.5,2.9-31.7,6.9c-2.9,1.1-5.8,2.8-4.4,6c0.9,2,4.2,3.9,6.5,3.9
		c3.8,0,7.7-1.5,11.5-2.4c9.6-2.1,19.1-2.5,28.4,1.3C385,258.5,388.7,259.9,393.4,261.8z M453.5,365.4c-1.4-15.8-8.8-27.3-22-35
		c-1.8-1.1-4.8-0.1-7.3-0.1c0.2,2.3-0.3,4.9,0.6,6.9c1.1,2.4,3.4,4.1,5,6.3c2.7,3.5,5.6,6.9,7.7,10.7c3.9,7.3,2.4,15.1,0.9,22.8
		c-0.7,3.6-0.1,6.9,3.8,8.1c3.9,1.2,6.6-1.3,7.7-4.7C451.5,375.5,452.3,370.4,453.5,365.4z M397.8,341.7c-0.6-7.5-2.5-14.1-7.7-19.3
		c-1.3-1.3-5-2.4-6-1.6c-1.5,1.1-1.5,4.1-2.1,6.3c-0.1,0.5,0.3,1.2,0.5,1.8c3.1,8.2,2.6,16.5,0,24.6c-1.2,3.9-1.7,7.5,2.6,9.2
		c4.3,1.7,7.3-1,8.5-4.7C395.6,352.8,396.5,347.2,397.8,341.7z M331,320.7c-1.4-3.2-3-7.8-5.5-11.8c-0.8-1.3-4.6-2.2-5.9-1.4
		c-1.4,0.9-1.8,3.9-1.8,6c0,4.2,0.6,8.3,0.8,12.5c0.1,2.8-0.7,5.8,0,8.5c0.6,2,2.7,4.8,4.4,5.1c1.6,0.2,4.4-2.3,5.1-4.2
		C329.4,331.2,329.8,326.8,331,320.7z"/>
	<path fill="#FFFFFF" d="M482,335.2c-1-7.5-3-20.9-4.5-34.2c-2.3-20.7-3.3-41.5,0.7-62.1c1.9-9.8,9.8-16.1,18.8-20.2
		c11.4-5.2,23.7-4.9,34.2,0.4c7.2,3.7,14.8,8.7,18.3,18.2c3.9,10.6,10,20.4,16,30.1c10.7,17.2,17.6,35.8,21.4,55.6
		c1,5.4,0.2,11.1,0.3,16.6c0,1.7,0,3.6,0.6,5.2c5,13.4,4,27.6,4.9,41.4c0.8,13.2-1.2,26.6-6.2,39.2c-4,10.1-4.5,20.6-5.3,31.2
		c-0.6,7-2,14.2-4.5,20.8c-5.3,13.6-11.1,26.9-17.5,40c-4.6,9.4-9.9,18.5-15.9,27c-6.9,9.6-14.9,18.4-22.6,27.5
		c-13.9,16.4-30.5,29.9-46.5,44c-2.5,2.2-6.2,3-9.2,4.8c-16.5,10.4-35.7,15.3-52.9,24.3c-3.3,1.7-7.1,2.7-10.9,3.3
		c-17.6,3.2-35.4,5.6-52.8,9.4c-10,2.2-19.7,2.3-29.7,1.8c-5.3-0.3-10.8,0.7-16.1,1.5c-11.8,1.8-23.4,0.8-34.9-2.1
		c-10.6-2.7-21-6-31.5-8.8c-7.3-2-14.8-3.5-22.2-5.3c-2.7-0.7-5.4-1.6-8.1-2.6c-14.7-5.8-29.5-11.6-44.2-17.5
		c-2.3-0.9-4.4-2.4-6.7-3.6c-8.5-4.6-17-9-25.4-13.7c-5.3-3-11.3-5.5-15.4-9.8c-9.6-9.8-18.3-20.5-27.3-30.9c-1-1.2-2-2.5-3-3.7
		c-3.2-4-6.8-7.7-9.6-12c-8-12.1-16-24.3-23.5-36.8c-3-5.1-4.7-11-6.7-16.7c-4-11.5-7.3-23.3-12-34.5c-5.2-12.3-7.8-25-9.2-38.1
		c-0.7-6.5-1.6-12.9-2.4-19.3c-2.3-17.9,2.6-35.4,2.9-53c0.3-16.5,6.4-31.2,10.9-46.4c6-20.3,14.5-39.6,25.4-57.7
		c3.3-5.6,7.3-10.8,10.9-16.1c1.3-1.9,0,0,5-1.3c0.5-0.1,2.1-0.1,2.9-0.7c2-1.3,3.6-3.3,5.7-4.3c3.6-1.7,7.4-3.2,11.3-4
		c6.4-1.2,12.9-1.8,19.3-2.5c16.7-1.8,32,10.6,32,27.1c0,20.6-0.5,41.2-6,61.3c-3.7,13.7-4.3,27.6-1.6,41.5
		c3.3,16.4,6.8,32.9,10.7,49.2c2.2,9,7.5,15.9,16.4,19.8c1.9,0.8,3.6,2.6,5,4.2c8.8,9.7,19.3,16.5,31.9,20.7
		c10.4,3.5,20.3,8.7,30.4,13.3c15.3,7,31,11.9,48.3,10.2c5.1-0.5,10.3,1.3,15.5,1.9c13,1.6,25.9,1.3,38.8-1.1
		c11.9-2.2,24-3.7,36-5.9c3.7-0.7,7.2-2.5,10.8-3.7c7.3-2.5,14.6-5.1,21.9-7.6c1-0.4,2.3-0.4,3.2-1c12.5-7.7,27.1-11.6,38.6-21.2
		c5.2-4.4,9.8-9,11.9-15.7c0.4-1.3,1.2-2.6,2.1-3.7C476.5,388.9,482.3,366,482,335.2z M483.9,456.6c0.9,1.7,1.5,2.5,1.6,3.4
		c1.5,8.1,3.4,16.1,4.2,24.3c0.3,2.6-1.3,6.4-3.4,8c-7,5.4-14.4,10.3-21.9,15.1c-6.6,4.3-10.6,9.8-10.4,18c0.1,4.1-0.9,8.3-0.2,12.3
		c1.3,8.2,2.8,16.5,5.2,24.4c4.2,14.2,29.1,16.9,37.4,6.9c7.5-8.9,15.6-18,20.3-28.4c5.3-11.6,8.6-24.7,10.1-37.4
		c2.5-21.4,3.4-43,3.9-64.5c0.2-9.6-1.1-19.4-3.4-28.7c-6-23.5-9.4-47.4-12.6-71.4c-2.3-17.3,3-33.3,6.5-49.7
		c0.4-1.6,2.3-3.8,3.8-4.1c9-1.8,22.9,6.1,25.1,14.9c1.5,6,1.4,12.5,1.6,18.8c0,1.2-1.7,3.5-2.7,3.6c-2.1,0.1-5.2-0.4-6.2-1.8
		c-1.9-2.6-2.7-6-3.6-9.1c-0.6-2.3,0.3-6-1-6.9c-1.9-1.4-5.7-1.9-7.7-0.9c-1.7,0.8-3.2,4.4-3.1,6.6c0.4,7.1,3.4,13.5,8.2,18.9
		c4.8,5.4,11,5.1,17.2,3.9c5-1,8.4-4.6,9.2-9.3c2.1-12.3,1.6-24.3-5.8-35.2c-6.3-9.3-16.3-10.9-26-13.1c-10.4-2.3-16.8,2-19.3,12.3
		c-1.8,7.4-3.5,14.8-5.2,22.3c-3.5,15.4-2.2,30.9-0.4,46.3c1.1,8.9,3.1,17.8,4.8,26.6c1.2,6.2,2.7,12.4,3.7,18.6
		c2.2,13.1,5.9,26.2,6,39.3c0.3,26.8-1.5,53.5-7.4,79.9c-3.7,16.4-12.1,29.4-23.3,41.1c-5.8,6.1-17.6,3.5-21.5-4
		c-5-9.8-3.9-20.3-4-30.8c-0.1-6.1,2.5-9.4,7.4-12.5c7.8-4.8,15.1-10.4,22.5-15.7c4.2-3,6.1-7.4,5.5-12.5
		c-0.9-7.5-1.9-15.1-3.5-22.5c-1-4.8-2.9-9.4-4.9-13.9c-1.9-4.3-6.1-5.3-9.9-2.5c-2.3,1.7-4.6,3.7-5.9,6
		c-8.3,14.2-21.3,23.2-34.7,31.8c-2.6,1.7-5.3,3-3.7,6.5c1.5,3.3,4.8,3.1,7.4,1.6c5-3,10.1-6,14.6-9.7
		C468.3,476,478.3,468.8,483.9,456.6z M171.8,486.4c-0.8,0.5-1.7,0.9-2.5,1.4c-10.9-6.9-22.2-13.2-32.5-20.9
		c-21.7-16.1-31.1-39.6-36.1-64.9c-3.6-18.1-1.2-36.3,1.2-54.4c2.3-17.8,6.2-36-4.9-52.6c-2.5-3.8-4.8-7.9-7.3-11.7
		c-7.1-10.5-21-13.1-33-6.3c-9.5,5.4-14.1,20.9-9.3,30.9c1.2,2.4,2.5,4.8,3.7,7.2c2.7,5.2,6.5,8.8,12.7,8.1
		c6.8-0.7,11.2-5,13.9-10.9c1.3-2.8,1.7-6.3-1.9-7.8c-4-1.7-4.1,2.2-5.7,4.4c-1.7,2.4-4.3,4.6-7,5.6c-1.1,0.4-3.7-2.7-5.2-4.5
		c-1.5-2-2.6-4.4-3.5-6.7c-2.7-6.8,1.7-16.8,8.5-19.5c8.9-3.6,15.5-2.1,20.4,6.2c4.8,8.2,10.3,17,11.6,26.1
		c1.5,10.9-1.2,22.3-2.2,33.6c-0.7,8.4-1.6,16.7-2.4,25.1c-2.4,26.7,4.9,51.4,17.5,74.4c11.4,20.7,30.5,33.6,51.1,44
		c10.1,5.1,11.6,6.1,10.3,17.1c-0.1,0.6-0.1,1.3-0.2,1.9c-1.4,16.4-5.4,32-16.2,44.9c-6.3,7.5-13.3,14.4-20.1,21.5
		c-2.1,2.2-4.2,4.4-2.1,7.3c2.2,3.1,5.3,2.1,8.1,0.5c0.7-0.4,1.3-0.9,1.9-1.5c20.1-19,35.3-40.6,37.3-69.5
		c0.8-11.4,1.2-11.2,11.2-5.5c12.7,7.1,25.2,14.7,40.4,15.4c3.8,0.2,7.5-0.1,8.1-4.5c0.6-4.4-2.8-5.3-6.4-5.9
		c-7.6-1.4-15.1-2.4-22-6.6c-8.8-5.3-18.2-9.6-27.2-14.6c-1.1-0.6-2.1-2.7-2.1-4.1c0.2-11.3,0.8-22.5,0.8-33.7
		c0-1.8-2.4-3.7-3.7-5.5c-1.7,1.5-3.5,2.9-4.9,4.6c-0.6,0.8-0.2,2.5-0.2,3.7C171.8,467.7,171.8,477.1,171.8,486.4z M299.3,637.6
		c14.5-1.1,31.2-1.6,47.6-4c8.9-1.3,17.4-5.7,25.8-9.1c1.6-0.6,2.8-3.3,3.2-5.3c0.3-1-1.2-3.3-2.3-3.6c-1.8-0.5-4.3-0.4-5.8,0.5
		c-15.1,8.5-31.9,8.7-48.4,10.2c-1.2,0.1-3.6-1.2-3.6-1.9c-0.4-11.9-0.5-23.7-0.6-35.6c0-1,0.8-2.6,1.6-2.9
		c10.7-3.7,21.5-7.1,32.2-10.9c1.6-0.6,3.7-2.5,3.8-3.9c0.1-1.4-2-4.2-3.2-4.3c-3.3-0.2-6.8,0.2-10,1.2c-6.7,2.2-13.3,5-20,7.5
		c-3.1,1.2-4.7,0.3-4.6-3.4c0.2-10.3,0.4-20.6,0.3-30.9c0-3.2,0.7-4.5,3.9-5c10.1-1.8,20.2-3.8,30.2-6.2c2.4-0.6,4.5-3,6.2-5
		c0.7-0.8,0.3-3.2-0.4-4.2c-0.6-0.8-2.6-1.3-3.8-1c-10.7,2.1-21.4,4.3-32,6.8c-3.7,0.9-5,0.3-5.2-3.8c-0.6-13.5-1.5-26.9-2.7-40.3
		c-0.2-2-2.7-3.9-4.1-5.8c-1.4,1.9-3.8,3.7-4.1,5.8c-0.6,4.5-0.5,9.2-0.2,13.7c0.5,9.5,1.4,19,1.8,28.5c0.1,1.1-1.6,3.3-2.3,3.3
		c-8.5-0.6-17-1.5-25.4-2.4c-4.9-0.5-6.4-3.1-6.1-8c0.4-5.8,0.3-11.8-0.5-17.5c-0.2-1.7-3.7-2.9-5.7-4.3c-0.8,2-2.1,3.9-2.3,5.9
		c-0.6,8.5,0.3,17.3-1.6,25.5c-1.6,6.9-5.2,13.9-13.8,15.7c-1,0.2-2.3,2.5-2.2,3.7c0.1,1.5,1.2,3.4,2.5,4.1
		c4.1,2.2,8.2,1.4,11.1-2.2c3.5-4.3,6.4-9,9.8-13.4c0.8-1,2.6-1.8,3.8-1.7c9.5,1.3,19,3.2,28.5,4.1c4.3,0.4,5.4,1.7,5.3,5.6
		c-0.2,10.6-0.2,21.3-0.5,31.9c0,1-2.5,2.8-3.5,2.6c-10.8-1.7-21.5-3.5-32.2-5.7c-3.7-0.7-6.7,0.4-5.8,3.4c0.6,2,2.9,4.5,4.8,5
		c11.1,2.6,22.3,4.5,33.4,6.9c1.2,0.2,2.9,1.9,2.9,2.9c0.4,10.9,0.5,21.9,0.8,32.8c0.1,3-0.9,3.8-3.8,3.7
		c-7.1-0.3-14.3,0.2-21.4-0.4c-10.8-0.9-21.9-1.2-31.6-7.3c-1.7-1.1-4.3-1.3-6.4-1.2c-1.4,0.1-3.2,1.5-3.7,2.7
		c-0.4,1,0.7,3.4,1.7,3.9c7,3.2,13.9,7.2,21.3,8.7C273.6,635.4,285.4,636,299.3,637.6z M450.1,589.8c-0.8-5.8-0.9-9.8-2-13.5
		c-1.4-4.8-4.4-8.8-9.9-8.7c-11,0.2-22,1-29.7,10.8c-1.3,1.6-2.7,3.3-4.5,4.2c-9.9,4.9-9.8,12.7-7,21.7c1.2,3.9,1.4,8.1,2.7,12
		c2.2,6.8,7.1,7.7,12,2.7c1.5-1.5,3.4-3,5.3-3.8c7.1-2.8,14.3-5.1,21.3-7.9c2.7-1.1,5.9-2.7,7.2-5C447.9,597.9,449,593,450.1,589.8z
		 M171.2,560.9c0.9,5.3,1.4,10.7,2.6,15.9c4.8,20.1,16.2,35.1,34.8,44.3c2.5,1.2,5.5,2.4,8.1,2.2c2.4-0.2,5.7-1.9,6.5-3.9
		c1.4-3.3-2.3-3.9-4.6-5.3c-7.2-4.4-15.3-8.2-21.2-14c-10.3-10-15.1-23.2-16.4-37.5c-0.1-1.3,1.4-3.5,2.6-3.9
		c4.2-1.3,8.5-2.4,12.9-2.9c8.6-1,15.6-4.3,19.4-12.5c1.4-2.9,5.4-6.4,1.3-9.1c-4.4-3-6.8,1.7-8.8,4.7c-3.2,4.7-7.4,6.9-12.9,7.8
		c-5.7,0.9-11.3,2.9-17,4.3C173.2,552.2,170.5,555.1,171.2,560.9z M119.1,544.1c0,0.1,0,0.2,0,0.2c3.8,0,7.7,0.5,11.3-0.2
		c1.8-0.3,3.2-2.7,4.9-4.2c-1.5-1.4-2.9-3.6-4.7-3.9c-5.3-0.9-10.7-1.7-16.1-1.5c-8.7,0.3-14.8-3.4-19.7-10.2
		c-1.9-2.7-4-5.4-6.6-7.4c-1.3-1-3.6-0.7-5.5-0.9c-0.1,2-0.9,4.3-0.2,5.9c1.1,2.7,3.2,5.1,4.8,7.6c6.1,10.2,15.1,15.1,26.9,14.6
		C115.9,544.1,117.5,544.1,119.1,544.1z M133,520.9c0-0.4-0.3,0.7,0.1,1.4c1,1.8,2.1,4.4,3.5,4.7c1.5,0.3,3.7-1.6,5.1-3
		c0.8-0.9,0.9-2.6,1-4c1.5-15.3-12-33.4-27.1-36.3c-1.7-0.3-3.6-0.6-5.1-0.1c-1.8,0.7-3.2,2.3-4.8,3.5c1.4,1.4,2.7,3.7,4.3,4
		C124.7,493.7,133.7,507.9,133,520.9z M385.5,520.6c10.8-2.7,22.3-6.1,31.8-13.9c1.2-1,2.3-2.2,3.2-3.5c1.8-2.5,3.7-5.8,0.3-7.7
		c-1.6-0.9-5.2,0.5-7.3,1.7c-4.1,2.3-7.4,6.1-11.6,7.9c-6.9,2.9-14.4,4.6-21.5,7.1c-1.6,0.6-3.8,2.5-3.8,3.8c0,1.4,2.1,3,3.6,4
		C381.3,520.6,383,520.3,385.5,520.6z M398.4,566.3c1.4-0.2,1.8-0.1,2-0.3c10.2-5.6,20.6-11,30.6-17c2.8-1.7,2.4-5.4-0.8-7
		c-1.6-0.8-4.5-0.4-6.2,0.6c-9.3,5.1-18.5,10.4-27.5,15.9c-1.2,0.7-2.3,3.4-1.8,4.6C395.3,564.7,397.5,565.6,398.4,566.3z
		 M394.7,540.9c12.9-0.5,21.8-7.4,30.9-13.6c1-0.7,1.4-3.8,0.7-5c-0.7-1.3-3-2.1-4.7-2.2c-1.4-0.1-3,0.9-4.4,1.7
		c-8.3,4.6-15.7,10.9-26,11c-1,0-2.5,1.7-2.7,2.8c-0.2,1.1,0.5,3,1.4,3.6C391.6,540.2,393.7,540.5,394.7,540.9z M226.4,491.3
		c-0.1-1.3,0.1-2.3-0.3-2.9c-4.9-6.7-9.7-13.4-14.9-19.9c-0.6-0.7-3.6-0.4-4.6,0.5c-0.9,0.8-1.4,3.5-0.7,4.6
		c2.6,4.6,5.9,8.9,8.6,13.4c1.5,2.4,2.3,5.2,3.6,7.7c0.8,1.5,1.9,3.8,3.1,3.9c1.3,0.1,3.3-1.5,4.2-2.8
		C226.2,494.5,226.2,492.6,226.4,491.3z M414.7,485.5c-0.2-7.8-2.8-13.6-7.9-18.1c-1.2-1-4-1.3-5.4-0.6c-1,0.5-2,3.8-1.4,4.7
		c3.8,5.9,5.7,12.2,5.6,19.3c0,1.3,2.2,3.4,3.5,3.6c1.4,0.1,3.5-1.4,4.2-2.8C414.4,489.5,414.4,486.9,414.7,485.5z"/>
	<path fill="#FFFFFF" d="M255.4,311.3c15.6,4.7,26.4,14.8,38.2,23.3c6.1,4.4,9.6,10.6,11.3,18.1c3.4,14.4,7,28.7,7.2,43.5
		c0,2.4,0.6,4.9-0.1,7.1c-0.6,2-2.3,4.8-3.9,5.1c-1.9,0.3-4.9-1-6.2-2.7c-1.5-2-2-4.9-2.5-7.5c-2.6-15-5-30-7.9-44.9
		c-0.6-3-2.7-6.4-5.1-8.3c-8.3-6.6-16.8-13-25.7-18.8c-3.7-2.4-8.5-3-12.8-4.5c0.1,4,0,8.1,0.3,12.1c1.2,18,2.4,36,3.7,54
		c0.6,7.9,1.5,15.8,2.1,23.7c0.2,2.4,0.6,5-0.3,7c-0.9,2.1-3,4.6-5.1,5.1c-3.2,0.7-4.5-2.1-4.7-5.2c-1.2-18-2.3-36.1-3.8-54.1
		c-0.9-11.2-2.4-22.4-3.7-33.5c-0.1-0.5-2.4-1.4-2.8-1.1c-4,3.8-8.1,7.5-11.6,11.8c-10.2,12.7-21.8,24.5-28.3,39.7
		c-1.8,4.2-2.2,9.1-3.7,13.5c-0.7,2.1-2.4,3.9-3.6,5.8c-1.8-1.4-4.6-2.5-5.4-4.4c-2.4-6-1.1-12.1,2-17.4c6-10.4,12.3-20.7,19.1-30.6
		c5.1-7.5,10.8-14.5,16.7-21.3c3.5-4,7.9-7.2,11.8-10.5c-4.4,0.3-9.4,0.4-14.2,1.1c-13.8,1.9-22.9-5.9-31-15.1
		c-7.8-9-10.5-20-11.3-31.7c-0.8-11.5-1.5-23.2,5.2-33.2c10.6-16,23.6-29.1,44.4-30.2c4.3-0.2,5.2-2.1,4.8-6
		c-0.8-6.9-1.2-13.9-1.6-20.9c-0.1-2.6-0.5-3.9-3.5-2.7c-9.2,3.8-18.5,7.4-27.7,11.1c-5,2-9.8,4.5-14.9,6.1
		c-5.1,1.6-10.4,2.3-14.6,6.3c-1.1,1.1-4.7,1.3-5.8,0.3c-1.4-1.2-2.5-4.9-1.6-6c2.5-3.4,5.5-7.7,9.1-8.8c9.9-3,19.2-7.1,28.4-11.8
		c8.3-4.2,17.4-6.7,26.4-9.3c3.3-1,4.3-2.3,4.1-5.5c-0.5-6.2-1-12.3-0.9-18.5c0-2.1,1.7-4.1,2.7-6.2c2,1.2,5.5,2,5.8,3.5
		c1.4,6.3,2.4,12.7,2.5,19.1c0.1,4.5,1.3,5.1,5.5,4.6c12.2-1.6,24.5-2.9,36.8-3.9c4.1-0.3,9.2-0.5,9.8,5.6c0.4,3.8-3.5,6.6-9.6,7.2
		c-12.8,1.2-25.5,2.6-38.3,3.6c-3.5,0.3-4.2,1.8-4,4.9c0.6,7.7,1,15.5,1.8,23.2c0.1,1.2,2,2.7,3.3,3.1c2.1,0.6,4.4,0.8,6.6,0.5
		c18.7-2.4,31.3,7.6,42.3,20.8c3.5,4.3,6.9,8.7,10,13.3c7.2,10.6,6.2,21.9,1,32.6c-5.5,11.6-14.3,20.4-25.9,26.3
		C269.7,303.1,263.2,307,255.4,311.3z M184.7,263.5c0,0,0.1,0,0.1,0c0.1,2.4,0.2,4.8,0.4,7.1c0.8,9.2,3,18.2,9.8,24.6
		c4.4,4.2,10,8.6,15.7,9.6c6.9,1.3,14.4-0.7,21.6-1.7c1.1-0.1,2.8-2.2,2.7-3.2c-0.9-11.7-2.1-23.3-3.1-35c-0.3-3.4-1.5-3-3.8-1.6
		c-4.4,2.8-8.8,5.7-13.5,7.9c-1.8,0.8-4.5-0.4-6.8-0.6c0.4-2.4,0.3-5.1,1.4-7.1c1-1.8,3.2-2.9,5.1-4.2c4.5-3,9.1-5.8,13.4-9
		c1.3-0.9,2.6-2.9,2.5-4.4c-0.2-8.1-0.7-16.1-1.3-24.2c-0.1-0.8-1.6-2.2-2.3-2.2c-15.3,1.8-27.7,7.6-33.1,23.5
		c-0.7,2-2.7,4.9-4.3,5.1c-4.1,0.5-4.3,3.2-4.6,5.9C184.5,257.2,184.7,260.4,184.7,263.5z M239.7,228.2c0.3,4.7,0.5,9.5,1,14.2
		c0.1,1,1,2.7,1.6,2.8c5.2,0.3,10.3,0.4,15.5,0.4c2.2,0,4.4-0.8,6.6-0.7c3.4,0.2,6.4,1.5,6.7,5.4c0.3,4-2.3,5.8-5.8,6.1
		c-6.4,0.5-12.9,0.9-19.3,0.7c-3.4-0.1-4.3,0.3-3.9,4c1.5,11.9,2.7,23.9,3.7,35.9c0.3,3.9,2,4.1,4.8,2.5c5.8-3.2,12-6,17.3-9.9
		c7-5,13.9-10.4,19.8-16.7c6.6-7.1,8.2-18.7,4.2-24.3c-4.4-6.2-9.3-12-14.2-17.8c-7.5-8.8-16.5-13.6-28.7-12.4
		C239.8,219.4,239.7,218.6,239.7,228.2z"/>
	<path fill="#FFFFFF" d="M429.3,208.8c5.9,3.4,12.4,6.3,13.8,13.6c2.3,11.6,5.4,23.3,5.9,35c1.2,25.2-20.9,47.6-46.1,49.4
		c-9.2,0.7-17.1-1.4-25.1-5.1c-7.7-3.5-15.6-4.8-24.1-2.3c-2,0.6-5.3-0.2-6.7-1.7c-1.2-1.2-1.4-5.2-0.4-6.4c2.4-2.6,5.7-5.4,8.9-5.8
		c10.2-1.2,20.2,0.3,29.7,4.8c12.4,5.8,25.1,6,35.9-2.6c11.7-9.4,17.9-22.1,14.9-37.8c-1.4-7.2-2.6-14.4-4.5-21.4
		c-0.7-2.6-2.7-5.5-5-6.9c-20.5-12.9-42.6-14.8-65.8-8.9c-1.2,0.3-2.5,1-3.7,0.8c-1.7-0.2-4.3-0.7-4.8-1.8c-0.7-1.5-0.4-4.2,0.6-5.6
		c1.2-1.7,3.4-2.9,5.4-3.6c12.6-4.4,25.5-6.3,38.8-3.4c6.2,1.3,12.4,2.3,18.7,3.3c0.8,0.1,1.9-0.6,2.7-1.1c1-0.7,1.9-1.7,2.9-2.4
		c6.1-3.9,5.7-3.7,2.3-10c-3.6-6.7-8.5-10.3-16.2-11.6c-11.1-1.9-21.9-4.9-32.8-7.6c-2.9-0.7-4.1,0.1-5.6,2.6
		c-3.9,6.5-8.1,12.8-12.6,18.9c-1.3,1.7-3.9,3-6,3.3c-1.8,0.3-4.8-0.7-5.6-2c-0.8-1.3-0.1-4.5,1.1-5.8
		c13.2-14.5,19.6-32.5,25.7-50.5c1-2.9,1.9-5.8,5.5-5.2c3.9,0.7,4.9,4.1,4.2,7.4c-1.3,5.9-3,11.7-4.9,17.4c-1,2.9-0.2,3.3,2.5,3.8
		c12.9,2.5,25.8,5.3,38.6,8c1.5,0.3,3,1,4.4,1.8c8.4,5.1,13.5,13,16.3,22C441,200.7,438.9,203.8,429.3,208.8z"/>
	<path fill="#FFFFFF" d="M403,405.3c0.8,0,2.8,0,4.9,0c3.7-0.1,6.3,1.7,6.7,5.3c0.5,3.9-1.9,6.4-5.5,7.2c-3.2,0.7-6.6,0.7-9.9,0.9
		c-18,1.3-31.5-6.8-40.7-21.5c-13.5-21.6-16.8-45.2-9.3-69.8c0.6-2,3.6-3.3,5.4-4.9c1.3,2,3.8,4.1,3.8,6.1c0.1,9.9-1.5,20-0.4,29.8
		c1.8,15.5,7.1,29.9,19.8,40.4C385,404.9,387.7,405.6,403,405.3z"/>
	<path fill="#FFFFFF" d="M393.4,261.8c-4.7-1.9-8.3-3.3-12-4.8c-9.3-3.9-18.8-3.5-28.4-1.3c-3.8,0.9-7.7,2.4-11.5,2.4
		c-2.2,0-5.6-1.9-6.5-3.9c-1.5-3.2,1.5-4.9,4.4-6c10.2-4,20.4-7.2,31.7-6.9c9.6,0.3,17.8,4,25.6,8.9c1.7,1.1,3,4.9,2.4,6.8
		C398.4,259,395.3,260.2,393.4,261.8z"/>
	<path fill="#FFFFFF" d="M453.5,365.4c-1.2,5-2,10.1-3.6,15c-1.1,3.4-3.8,5.8-7.7,4.7c-3.9-1.2-4.5-4.5-3.8-8.1
		c1.4-7.7,3-15.4-0.9-22.8c-2.1-3.8-5-7.2-7.7-10.7c-1.6-2.1-3.9-3.9-5-6.3c-0.9-2-0.5-4.6-0.6-6.9c2.5,0,5.5-1,7.3,0.1
		C444.7,338.1,452.1,349.6,453.5,365.4z"/>
	<path fill="#FFFFFF" d="M397.8,341.7c-1.3,5.5-2.2,11.1-4,16.4c-1.2,3.7-4.2,6.4-8.5,4.7c-4.4-1.8-3.9-5.3-2.6-9.2
		c2.6-8.2,3-16.4,0-24.6c-0.2-0.6-0.6-1.3-0.5-1.8c0.5-2.2,0.6-5.2,2.1-6.3c1-0.8,4.6,0.3,6,1.6
		C395.3,327.6,397.2,334.2,397.8,341.7z"/>
	<path fill="#FFFFFF" d="M331,320.7c-1.2,6.1-1.5,10.6-3,14.7c-0.7,1.9-3.5,4.4-5.1,4.2c-1.7-0.2-3.8-3-4.4-5.1
		c-0.7-2.6,0.1-5.6,0-8.5c-0.2-4.2-0.8-8.3-0.8-12.5c0-2.1,0.5-5.1,1.8-6c1.3-0.8,5.1,0.1,5.9,1.4
		C327.9,312.9,329.5,317.5,331,320.7z"/>
	<path d="M483.9,456.6c-5.6,12.2-15.6,19.3-25,27c-4.5,3.7-9.6,6.7-14.6,9.7c-2.6,1.5-5.8,1.8-7.4-1.6c-1.6-3.4,1.1-4.8,3.7-6.5
		c13.3-8.6,26.4-17.5,34.7-31.8c1.4-2.4,3.7-4.4,5.9-6c3.8-2.8,7.9-1.8,9.9,2.5c2,4.5,3.8,9.1,4.9,13.9c1.6,7.4,2.6,15,3.5,22.5
		c0.6,5.1-1.3,9.4-5.5,12.5c-7.4,5.4-14.7,11-22.5,15.7c-5,3.1-7.5,6.4-7.4,12.5c0.1,10.5-1,21,4,30.8c3.9,7.5,15.7,10.1,21.5,4
		c11.1-11.7,19.6-24.7,23.3-41.1c5.9-26.4,7.7-53.1,7.4-79.9c-0.1-13.1-3.8-26.2-6-39.3c-1.1-6.2-2.5-12.4-3.7-18.6
		c-1.7-8.9-3.8-17.7-4.8-26.6c-1.8-15.4-3.1-30.9,0.4-46.3c1.7-7.4,3.4-14.8,5.2-22.3c2.5-10.4,8.9-14.7,19.3-12.3
		c9.7,2.2,19.7,3.8,26,13.1c7.4,10.9,8,22.9,5.8,35.2c-0.8,4.7-4.2,8.3-9.2,9.3c-6.2,1.2-12.4,1.5-17.2-3.9
		c-4.8-5.4-7.7-11.7-8.2-18.9c-0.1-2.2,1.3-5.8,3.1-6.6c2.1-1,5.8-0.5,7.7,0.9c1.3,1,0.4,4.6,1,6.9c0.9,3.2,1.7,6.6,3.6,9.1
		c1,1.4,4.1,1.8,6.2,1.8c1,0,2.7-2.3,2.7-3.6c-0.2-6.3-0.1-12.8-1.6-18.8c-2.3-8.8-16.1-16.7-25.1-14.9c-1.5,0.3-3.5,2.5-3.8,4.1
		c-3.5,16.4-8.8,32.4-6.5,49.7c3.2,24,6.6,47.9,12.6,71.4c2.4,9.3,3.7,19.2,3.4,28.7c-0.5,21.5-1.4,43.1-3.9,64.5
		c-1.5,12.7-4.8,25.8-10.1,37.4c-4.7,10.4-12.9,19.4-20.3,28.4c-8.4,10-33.2,7.3-37.4-6.9c-2.4-8-3.9-16.2-5.2-24.4
		c-0.6-4,0.3-8.2,0.2-12.3c-0.2-8.2,3.8-13.7,10.4-18c7.4-4.8,14.9-9.6,21.9-15.1c2-1.6,3.6-5.4,3.4-8c-0.9-8.2-2.7-16.2-4.2-24.3
		C485.4,459.2,484.8,458.4,483.9,456.6z"/>
	<path d="M171.8,486.4c0-9.3,0-18.7,0-28c0-1.3-0.4-2.9,0.2-3.7c1.3-1.8,3.2-3.1,4.9-4.6c1.3,1.8,3.7,3.7,3.7,5.5
		c0,11.2-0.6,22.5-0.8,33.7c0,1.4,0.9,3.5,2.1,4.1c9,5,18.4,9.2,27.2,14.6c6.9,4.2,14.5,5.3,22,6.6c3.6,0.6,7,1.5,6.4,5.9
		c-0.6,4.5-4.3,4.7-8.1,4.5c-15.2-0.7-27.7-8.3-40.4-15.4c-10-5.6-10.4-5.8-11.2,5.5c-2,28.9-17.2,50.4-37.3,69.5
		c-0.6,0.5-1.2,1.1-1.9,1.5c-2.8,1.7-5.8,2.6-8.1-0.5c-2.1-3,0-5.1,2.1-7.3c6.8-7,13.8-14,20.1-21.5c10.8-12.9,14.8-28.5,16.2-44.9
		c0.1-0.6,0.1-1.3,0.2-1.9c1.3-11-0.2-12.1-10.3-17.1c-20.6-10.3-39.6-23.2-51.1-44c-12.7-23-19.9-47.6-17.5-74.4
		c0.8-8.4,1.6-16.7,2.4-25.1c1-11.2,3.7-22.7,2.2-33.6c-1.2-9.1-6.8-17.8-11.6-26.1c-4.9-8.3-11.5-9.8-20.4-6.2
		c-6.8,2.7-11.2,12.8-8.5,19.5c0.9,2.3,2,4.7,3.5,6.7c1.4,1.9,4.1,4.9,5.2,4.5c2.7-0.9,5.4-3.2,7-5.6c1.6-2.3,1.7-6.1,5.7-4.4
		c3.6,1.5,3.2,5,1.9,7.8c-2.7,6-7.1,10.2-13.9,10.9c-6.3,0.7-10.1-2.9-12.7-8.1c-1.2-2.4-2.6-4.7-3.7-7.2
		c-4.9-10.1-0.2-25.5,9.3-30.9c12-6.8,25.9-4.2,33,6.3c2.6,3.8,4.8,7.9,7.3,11.7c11.1,16.7,7.2,34.8,4.9,52.6
		c-2.4,18.2-4.7,36.4-1.2,54.4c5,25.4,14.4,48.9,36.1,64.9c10.3,7.7,21.7,14,32.5,20.9C170.1,487.4,171,486.9,171.8,486.4z"/>
	<path d="M299.3,637.6c-13.9-1.6-25.7-2.1-37.1-4.5c-7.4-1.5-14.3-5.5-21.3-8.7c-1-0.5-2.1-2.9-1.7-3.9c0.5-1.3,2.4-2.6,3.7-2.7
		c2.1-0.2,4.7,0.1,6.4,1.2c9.7,6.1,20.8,6.4,31.6,7.3c7.1,0.6,14.3,0.1,21.4,0.4c2.9,0.1,3.9-0.8,3.8-3.7
		c-0.4-10.9-0.4-21.9-0.8-32.8c0-1-1.8-2.6-2.9-2.9c-11.1-2.4-22.4-4.3-33.4-6.9c-1.9-0.5-4.2-3-4.8-5c-0.9-3,2.1-4.1,5.8-3.4
		c10.7,2.1,21.4,4,32.2,5.7c1.1,0.2,3.5-1.7,3.5-2.6c0.4-10.6,0.3-21.2,0.5-31.9c0.1-3.9-1.1-5.2-5.3-5.6c-9.6-0.8-19-2.8-28.5-4.1
		c-1.2-0.2-3.1,0.7-3.8,1.7c-3.4,4.4-6.3,9.1-9.8,13.4c-2.9,3.6-7,4.5-11.1,2.2c-1.3-0.7-2.4-2.7-2.5-4.1c-0.1-1.2,1.2-3.5,2.2-3.7
		c8.6-1.8,12.3-8.8,13.8-15.7c1.9-8.2,1-17,1.6-25.5c0.1-2,1.5-3.9,2.3-5.9c2,1.4,5.4,2.6,5.7,4.3c0.8,5.8,0.9,11.7,0.5,17.5
		c-0.3,4.9,1.2,7.5,6.1,8c8.5,0.9,16.9,1.8,25.4,2.4c0.7,0.1,2.4-2.2,2.3-3.3c-0.5-9.5-1.3-19-1.8-28.5c-0.2-4.6-0.4-9.2,0.2-13.7
		c0.3-2.1,2.7-3.9,4.1-5.8c1.4,1.9,4,3.8,4.1,5.8c1.2,13.4,2,26.9,2.7,40.3c0.2,4,1.5,4.6,5.2,3.8c10.6-2.5,21.3-4.7,32-6.8
		c1.2-0.2,3.2,0.2,3.8,1c0.7,1,1.1,3.4,0.4,4.2c-1.7,2-3.8,4.5-6.2,5c-10,2.4-20.1,4.3-30.2,6.2c-3.2,0.6-3.9,1.9-3.9,5
		c0.2,10.3-0.1,20.6-0.3,30.9c-0.1,3.7,1.5,4.6,4.6,3.4c6.7-2.5,13.2-5.3,20-7.5c3.2-1,6.7-1.5,10-1.2c1.3,0.1,3.3,2.8,3.2,4.3
		c-0.1,1.4-2.2,3.3-3.8,3.9c-10.7,3.8-21.5,7.2-32.2,10.9c-0.8,0.3-1.6,1.9-1.6,2.9c0.1,11.9,0.2,23.7,0.6,35.6c0,0.7,2.4,2,3.6,1.9
		c16.5-1.5,33.4-1.7,48.4-10.2c1.6-0.9,4-1,5.8-0.5c1.1,0.3,2.5,2.6,2.3,3.6c-0.5,2-1.7,4.6-3.2,5.3c-8.5,3.4-17,7.8-25.8,9.1
		C330.5,636,313.8,636.5,299.3,637.6z"/>
	<path d="M450.1,589.8c-1.1,3.2-2.2,8.2-4.6,12.4c-1.3,2.3-4.5,3.9-7.2,5c-7,2.9-14.3,5.2-21.3,7.9c-2,0.8-3.8,2.2-5.3,3.8
		c-4.8,5-9.8,4-12-2.7c-1.3-3.9-1.5-8.1-2.7-12c-2.8-9-2.9-16.8,7-21.7c1.8-0.9,3.3-2.6,4.5-4.2c7.7-9.8,18.6-10.6,29.7-10.8
		c5.6-0.1,8.6,3.9,9.9,8.7C449.2,580,449.3,584,450.1,589.8z M440,587.8c0-1.6,0.1-3.2,0-4.7c-0.5-6.2-1.2-6.5-7.3-6
		c-7.6,0.7-14.5,2.6-19.5,9c-1.7,2.2-4.3,3.7-6.4,5.7c-0.9,0.9-2,2.3-1.9,3.4c0.4,3.8,1.1,7.5,1.9,11.2c0.1,0.6,1.5,1.5,2,1.4
		c7.5-2.5,14.9-5.2,22.3-7.8C439.6,596.9,439.7,596.7,440,587.8z"/>
	<path d="M171.2,560.9c-0.7-5.8,2-8.7,7.3-10c5.7-1.3,11.2-3.4,17-4.3c5.5-0.9,9.8-3,12.9-7.8c2-3,4.4-7.7,8.8-4.7
		c4,2.8,0,6.2-1.3,9.1c-3.8,8.2-10.8,11.5-19.4,12.5c-4.4,0.5-8.7,1.6-12.9,2.9c-1.2,0.4-2.7,2.6-2.6,3.9
		c1.4,14.3,6.2,27.5,16.4,37.5c6,5.8,14,9.6,21.2,14c2.3,1.4,6,2,4.6,5.3c-0.8,2-4.2,3.7-6.5,3.9c-2.6,0.2-5.6-1-8.1-2.2
		c-18.6-9.2-30.1-24.2-34.8-44.3C172.6,571.6,172.1,566.2,171.2,560.9z"/>
	<path d="M119.1,544.1c-1.6,0-3.2-0.1-4.7,0c-11.9,0.5-20.8-4.4-26.9-14.6c-1.6-2.6-3.7-4.9-4.8-7.6c-0.7-1.7,0.1-3.9,0.2-5.9
		c1.9,0.3,4.3-0.1,5.5,0.9c2.5,2.1,4.7,4.7,6.6,7.4c4.8,6.8,11,10.5,19.7,10.2c5.3-0.2,10.8,0.6,16.1,1.5c1.7,0.3,3.1,2.5,4.7,3.9
		c-1.6,1.5-3,3.8-4.9,4.2c-3.7,0.7-7.6,0.2-11.3,0.2C119.1,544.3,119.1,544.2,119.1,544.1z"/>
	<path d="M133,520.9c0.7-13-8.3-27.3-23-29.9c-1.6-0.3-2.9-2.6-4.3-4c1.6-1.2,3-2.8,4.8-3.5c1.5-0.6,3.5-0.2,5.1,0.1
		c15.1,2.9,28.6,21,27.1,36.3c-0.1,1.4-0.2,3.2-1,4c-1.4,1.4-3.6,3.3-5.1,3c-1.4-0.2-2.5-2.9-3.5-4.7
		C132.6,521.6,133,520.5,133,520.9z"/>
	<path d="M385.5,520.6c-2.4-0.3-4.1-0.1-5.2-0.8c-1.5-1-3.6-2.6-3.6-4c0-1.3,2.2-3.2,3.8-3.8c7.1-2.5,14.5-4.2,21.5-7.1
		c4.2-1.8,7.6-5.5,11.6-7.9c2.1-1.2,5.7-2.6,7.3-1.7c3.5,2,1.6,5.2-0.3,7.7c-0.9,1.3-2,2.5-3.2,3.5
		C407.7,514.6,396.3,517.9,385.5,520.6z"/>
	<path d="M398.4,566.3c-0.9-0.7-3.1-1.6-3.7-3.1c-0.5-1.2,0.6-3.9,1.8-4.6c9-5.5,18.2-10.8,27.5-15.9c1.7-0.9,4.5-1.4,6.2-0.6
		c3.2,1.6,3.5,5.3,0.8,7c-10,6-20.3,11.4-30.6,17C400.1,566.2,399.8,566.1,398.4,566.3z"/>
	<path d="M394.7,540.9c-1-0.4-3.1-0.7-4.7-1.8c-0.9-0.6-1.6-2.5-1.4-3.6c0.2-1.1,1.7-2.8,2.7-2.8c10.2,0,17.7-6.4,26-11
		c1.4-0.8,3-1.8,4.4-1.7c1.7,0.1,4,1,4.7,2.2c0.7,1.2,0.3,4.3-0.7,5C416.5,533.5,407.5,540.4,394.7,540.9z"/>
	<path d="M226.4,491.3c-0.3,1.2-0.2,3.2-1.1,4.5c-0.9,1.4-2.9,3-4.2,2.8c-1.2-0.1-2.3-2.4-3.1-3.9c-1.3-2.5-2.2-5.3-3.6-7.7
		c-2.8-4.5-6-8.8-8.6-13.4c-0.6-1.1-0.2-3.7,0.7-4.6c1-0.9,4-1.2,4.6-0.5c5.2,6.5,10,13.2,14.9,19.9
		C226.5,489,226.3,490,226.4,491.3z"/>
	<path d="M414.7,485.5c-0.3,1.4-0.3,4-1.3,6c-0.7,1.4-2.9,3-4.2,2.8c-1.3-0.1-3.5-2.3-3.5-3.6c0.1-7.1-1.8-13.3-5.6-19.3
		c-0.6-1,0.3-4.2,1.4-4.7c1.4-0.7,4.2-0.4,5.4,0.6C411.9,471.9,414.5,477.8,414.7,485.5z"/>
	<path d="M184.7,263.5c0-3.2-0.2-6.3,0.1-9.5c0.2-2.8,0.4-5.5,4.6-5.9c1.6-0.2,3.6-3,4.3-5.1c5.3-15.9,17.8-21.7,33.1-23.5
		c0.7-0.1,2.3,1.3,2.3,2.2c0.6,8.1,1.1,16.1,1.3,24.2c0,1.5-1.3,3.5-2.5,4.4c-4.3,3.2-9,6-13.4,9c-1.8,1.2-4.1,2.4-5.1,4.2
		c-1.1,2-1,4.7-1.4,7.1c2.3,0.3,5,1.5,6.8,0.6c4.7-2.1,9.1-5.1,13.5-7.9c2.3-1.5,3.5-1.8,3.8,1.6c1,11.7,2.2,23.3,3.1,35
		c0.1,1.1-1.6,3.1-2.7,3.2c-7.2,0.9-14.8,2.9-21.6,1.7c-5.7-1-11.2-5.4-15.7-9.6c-6.9-6.4-9.1-15.4-9.8-24.6
		c-0.2-2.4-0.3-4.7-0.4-7.1C184.8,263.5,184.8,263.5,184.7,263.5z"/>
	<path d="M239.7,228.2c0-9.6,0.1-8.8,9.3-9.7c12.3-1.2,21.2,3.7,28.7,12.4c4.9,5.8,9.8,11.7,14.2,17.8c4,5.5,2.4,17.2-4.2,24.3
		c-5.9,6.3-12.8,11.6-19.8,16.7c-5.4,3.9-11.5,6.7-17.3,9.9c-2.8,1.6-4.5,1.4-4.8-2.5c-1-12-2.2-24-3.7-35.9c-0.5-3.7,0.5-4.1,3.9-4
		c6.4,0.2,12.9-0.2,19.3-0.7c3.5-0.3,6.2-2.1,5.8-6.1c-0.3-3.9-3.3-5.3-6.7-5.4c-2.2-0.1-4.4,0.7-6.6,0.7c-5.2,0-10.4-0.1-15.5-0.4
		c-0.6,0-1.5-1.8-1.6-2.8C240.3,237.7,240.1,233,239.7,228.2z"/>
	<path fill="#FFFFFF" d="M440,587.8c-0.3,8.9-0.4,9.1-8.9,12.1c-7.4,2.6-14.8,5.3-22.3,7.8c-0.5,0.2-1.9-0.8-2-1.4
		c-0.8-3.7-1.6-7.4-1.9-11.2c-0.1-1.1,1-2.5,1.9-3.4c2-2,4.6-3.5,6.4-5.7c5-6.4,11.9-8.3,19.5-9c6.2-0.5,6.8-0.2,7.3,6
		C440.1,584.6,440,586.2,440,587.8z"/>
</g>
</svg>
